<?xml version="1.0" encoding="UTF-8" standalone="no"?>
<svg
   xmlns:dc="http://purl.org/dc/elements/1.1/"
   xmlns:cc="http://creativecommons.org/ns#"
   xmlns:rdf="http://www.w3.org/1999/02/22-rdf-syntax-ns#"
   xmlns:svg="http://www.w3.org/2000/svg"
   xmlns="http://www.w3.org/2000/svg"
   xmlns:sodipodi="http://sodipodi.sourceforge.net/DTD/sodipodi-0.dtd"
   xmlns:inkscape="http://www.inkscape.org/namespaces/inkscape"
   xml:space="preserve"
   version="1.0"
   id="layer1"
   width="400pt"
   height="400pt"
   viewBox="0 0 75 75"
   inkscape:version="0.91 r13725"
   sodipodi:docname="video.svg"><defs
     id="defs12" /><sodipodi:namedview
     pagecolor="#ffffff"
     bordercolor="#666666"
     borderopacity="1"
     objecttolerance="10"
     gridtolerance="10"
     guidetolerance="10"
     inkscape:pageopacity="0"
     inkscape:pageshadow="2"
     inkscape:window-width="1436"
     inkscape:window-height="741"
     id="namedview10"
     showgrid="false"
     inkscape:zoom="1.3350176"
     inkscape:cx="250"
     inkscape:cy="249.19337"
     inkscape:window-x="53"
     inkscape:window-y="23"
     inkscape:window-maximized="0"
     inkscape:current-layer="layer1"
     showguides="false" /><metadata
     id="metadata1"><rdf:RDF><cc:Work
         rdf:about=""><dc:format>image/svg+xml</dc:format><dc:type
           rdf:resource="http://purl.org/dc/dcmitype/StillImage" /><dc:title></dc:title></cc:Work></rdf:RDF></metadata><g
     transform="matrix(1.8342048,0,0,1.838763,8.2286578,8.4346451)"
     id="g2994" /><g
     transform="matrix(1.8342048,0,0,1.838763,8.2286578,8.4346451)"
     id="g2996" /><g
     transform="matrix(1.8342048,0,0,1.838763,8.2286578,8.4346451)"
     id="g2998" /><g
     transform="matrix(1.8342048,0,0,1.838763,8.2286578,8.4346451)"
     id="g3000" /><g
     transform="matrix(1.8342048,0,0,1.838763,8.2286578,8.4346451)"
     id="g3002" /><g
     transform="matrix(1.8342048,0,0,1.838763,8.2286578,8.4346451)"
     id="g3004" /><path
     style="fill:#1ca8dd;fill-opacity:1;stroke:none;stroke-width:34.19994354;stroke-miterlimit:4;stroke-dasharray:none;stroke-opacity:1"
     d="M 55.078125 79.900391 C 34.026124 79.900391 17.078125 96.84839 17.078125 117.90039 L 17.078125 386.90039 C 17.078125 407.95239 34.026124 424.90039 55.078125 424.90039 L 444.92188 424.90039 C 465.97388 424.90039 482.92188 407.95239 482.92188 386.90039 L 482.92188 117.90039 C 482.92187 96.84839 465.97388 79.900391 444.92188 79.900391 L 55.078125 79.900391 z M 201.58984 178.80664 L 323.87891 252.36914 L 201.58984 325.93164 L 201.58984 178.80664 z "
     transform="scale(0.15,0.15)"
     id="rect5458" /></svg>